# xmcd
#
# Track frame offsets:
#       150
#       15180
#       28293
#       46300
#       61951
#       74568
#       88575
#       97300
#       116478
#       131284
#       140906
#       153295
#       168095
#       182808
#       197076
#       206051
#       219333
#
# Disc length: 3121 seconds
#
# Revision: 1
# Processed by: cddbd v1.5.1PL0 Copyright (c) Steve Scherf et al.
# Submitted via: MusiCat 1.1
#
DISCID=f40c2f11
DTITLE=Airport Örgeler - 1999
DYEAR=1900
DGENRE=
TTITLE0=Feldweibel
TTITLE1=airport Polka
TTITLE2=Der Hobby Senn
TTITLE3=Peter uf de Krüzig
TTITLE4=Abschied von Davos
TTITLE5=Im Pöschtli z' Appezell
TTITLE6=En Löffeler
TTITLE7=Rängalp Friede
TTITLE8=Orgelihus
TTITLE9=Tschoppe Lise
TTITLE10=Evelin am Silvesterball
TTITLE11=Erinnerung an Nijmegen
TTITLE12=Oberländer Marsch
TTITLE13=Es Stückli Heimat
TTITLE14=Der Seppel
TTITLE15=Südrampewanderung
TTITLE16=E Chrott im Nescht
EXTD=0\n\n\n
EXTT0=
EXTT1=
EXTT2=
EXTT3=
EXTT4=
EXTT5=
EXTT6=
EXTT7=
EXTT8=
EXTT9=
EXTT10=
EXTT11=
EXTT12=
EXTT13=
EXTT14=
EXTT15=
EXTT16=
PLAYORDER=
